<svg width="17" height="28" viewBox="0 0 17 28" fill="none" xmlns="http://www.w3.org/2000/svg">
<path d="M15.0613 1H1.64909C1.29141 1 1.00146 1.28995 1.00146 1.64762V26.0824C1.00146 26.4401 1.29141 26.73 1.64909 26.73H15.0613C15.419 26.73 15.7089 26.4401 15.7089 26.0824V1.64762C15.7089 1.28995 15.419 1 15.0613 1Z" stroke="#999999" stroke-linecap="round" stroke-linejoin="round"/>
<path d="M1.00146 20.1631H15.6895" stroke="#999999" stroke-linecap="round" stroke-linejoin="round"/>
<path d="M1.00146 4.38696H15.6895" stroke="#999999" stroke-linecap="round" stroke-linejoin="round"/>
<path d="M9.0061 23.2264C9.0061 23.5632 8.7341 23.8352 8.39734 23.8352C8.06058 23.8352 7.78857 23.5632 7.78857 23.2264C7.78857 22.8897 8.06058 22.6177 8.39734 22.6177C8.7341 22.6177 9.0061 22.8897 9.0061 23.2264Z" stroke="#999999" stroke-linecap="round" stroke-linejoin="round"/>
</svg>
