<svg width="13" height="13" viewBox="0 0 13 13" fill="none" xmlns="http://www.w3.org/2000/svg">
<path d="M10.8797 5.42094C10.7545 4.75296 10.5041 4.13636 10.141 3.59683L11.1927 2.51778L9.91564 1.20751L8.86398 2.28656C8.33815 1.92687 7.7372 1.65711 7.08618 1.52865V0H5.28333V1.52865C4.63231 1.65711 4.03136 1.91403 3.50553 2.28656L2.45387 1.20751L1.17686 2.51778L2.22851 3.59683C1.86544 4.13636 1.61505 4.75296 1.48985 5.42094H0V7.57904H1.48985C1.61505 8.24702 1.86544 8.86362 2.22851 9.40315L1.17686 10.4822L2.45387 11.7925L3.50553 10.7134C4.03136 11.0731 4.63231 11.3429 5.28333 11.4713V13H7.08618V11.4713C7.7372 11.3429 8.33815 11.086 8.86398 10.7134L9.91564 11.7925L11.1927 10.4822L10.141 9.40315C10.5041 8.86362 10.7545 8.24702 10.8797 7.57904H12.3695V5.42094H10.8797Z" fill="#999999"/>
<path d="M8.27547 6.49999C8.27547 5.31817 7.33649 4.35474 6.18467 4.35474C5.03285 4.35474 4.09387 5.31817 4.09387 6.49999C4.09387 7.68181 5.03285 8.64524 6.18467 8.64524C7.33649 8.64524 8.27547 7.68181 8.27547 6.49999Z" fill="white"/>
</svg>
