<svg width="18" height="18" viewBox="0 0 18 18" fill="none" xmlns="http://www.w3.org/2000/svg">
<path d="M14.7479 7.85007C14.5897 7.00598 14.2733 6.22683 13.8145 5.54507L15.1434 4.18155L13.5297 2.52584L12.2008 3.88936C11.5363 3.43486 10.777 3.09398 9.95431 2.93165V1H7.67618V2.93165C6.85352 3.09398 6.09415 3.41862 5.42969 3.88936L4.10079 2.52584L2.48711 4.18155L3.81602 5.54507C3.35723 6.22683 3.04082 7.00598 2.88262 7.85007H1V10.5771H2.88262C3.04082 11.4212 3.35723 12.2003 3.81602 12.8821L2.48711 14.2456L4.10079 15.9013L5.42969 14.5378C6.09415 14.9923 6.85352 15.3332 7.67618 15.4955V17.4272H9.95431V15.4955C10.777 15.3332 11.5363 15.0085 12.2008 14.5378L13.5297 15.9013L15.1434 14.2456L13.8145 12.8821C14.2733 12.2003 14.5897 11.4212 14.7479 10.5771H16.6305V7.85007H14.7479Z" stroke="#666666" stroke-linecap="round" stroke-linejoin="round"/>
<path d="M11.4571 9.21374C11.4571 7.72036 10.2706 6.50293 8.81509 6.50293C7.35962 6.50293 6.1731 7.72036 6.1731 9.21374C6.1731 10.7071 7.35962 11.9245 8.81509 11.9245C10.2706 11.9245 11.4571 10.7071 11.4571 9.21374Z" stroke="#666666" stroke-linecap="round" stroke-linejoin="round"/>
</svg>
