<svg width="19" height="18" viewBox="0 0 19 18" fill="none" xmlns="http://www.w3.org/2000/svg">
<path d="M13.8112 17.0644C13.8112 15.355 11.8284 11.6599 9.13025 10.906C8.81819 10.7955 8.69668 10.3951 9.09159 10.1576C10.547 9.51138 11.566 8.09742 11.566 6.40177C11.566 4.10409 9.70191 2.23999 7.40423 2.23999C5.10655 2.23999 3.24245 4.10409 3.24245 6.40177C3.24245 8.06152 4.21454 9.48928 5.62022 10.1576C6.04275 10.3564 6.02894 10.8093 5.6644 10.906C2.97457 11.6655 1 15.4102 1 17.0644" stroke="#333333" stroke-linecap="round" stroke-linejoin="round"/>
<path d="M18.4094 15.8245C18.4094 14.115 16.4266 10.4199 13.7284 9.66601C13.4164 9.55555 13.2949 9.15511 13.6898 8.91761C15.1452 8.27139 16.1642 6.85743 16.1642 5.16178C16.1642 2.8641 14.3001 1 12.0024 1C10.8536 1 9.81244 1.46672 9.06128 2.21788" stroke="#333333" stroke-linecap="round" stroke-linejoin="round"/>
</svg>
