<svg width="200" height="200" viewBox="0 0 200 200" fill="none" xmlns="http://www.w3.org/2000/svg">
<rect width="200" height="200" fill="#F5F5F5"/>
<path d="M113.068 65.7649C113.068 57.5402 106.405 51 98.2501 51C90.0952 51 83.4321 57.6393 83.4321 65.7649C83.4321 73.8906 90.0952 80.5298 98.2501 80.5298C106.405 80.5298 113.068 73.8906 113.068 65.7649Z" fill="#999999"/>
<path d="M99.5588 84.2969C80.423 84.2969 65 98.756 65 116.552H134.118C134.118 98.756 118.695 84.2969 99.5588 84.2969Z" fill="#999999"/>
<path d="M35.744 144.644V141.104H33.248V144.644H35.744ZM32.012 144.644V141.104H30.416V140.108H38.564V141.104H36.968V144.644H38.54V145.652H30.452V144.644H32.012ZM29.6 147.572H39.44V148.592H29.6V147.572ZM46.1591 147.632H50.4671V148.652H40.6511V147.632H44.9231V145.784H41.8391V142.292H48.0791V140.84H41.8151V139.844H49.3031V143.276H43.0511V144.788H49.5431V145.784H46.1591V147.632ZM60.6421 139.076V144.68H59.3941V139.076H60.6421ZM54.3301 140.756V143.348C54.8101 143.336 55.3261 143.324 55.8181 143.3V140.756H54.3301ZM58.4581 143.084L58.5181 143.972C56.3701 144.32 53.8861 144.38 52.0021 144.392L51.8701 143.384C52.2661 143.384 52.6981 143.384 53.1421 143.372V140.756H52.1581V139.772H57.9781V140.756H57.0181V143.228C57.5101 143.192 57.9901 143.144 58.4581 143.084ZM54.7141 148.856H61.0021V149.828H53.4781V147.008H59.4181V146.132H53.4661V145.172H60.6421V147.908H54.7141V148.856ZM73.0925 139.076H74.3405V149.948H73.0925V139.076ZM68.5685 139.88C70.1885 139.88 71.3645 141.368 71.3645 143.696C71.3645 146.048 70.1885 147.524 68.5685 147.524C66.9605 147.524 65.7845 146.048 65.7845 143.696C65.7845 141.368 66.9605 139.88 68.5685 139.88ZM68.5685 140.996C67.6325 140.996 66.9725 142.016 66.9725 143.696C66.9725 145.4 67.6325 146.42 68.5685 146.42C69.5165 146.42 70.1765 145.4 70.1765 143.696C70.1765 142.016 69.5165 140.996 68.5685 140.996ZM77.0396 140.108H82.1276V147.272H77.0396V140.108ZM80.9156 141.092H78.2516V146.276H80.9156V141.092ZM84.1316 139.076H85.3796V149.948H84.1316V139.076ZM91.4986 141.188V142.22C91.4986 144.02 92.6146 145.892 94.3066 146.612L93.6226 147.584C92.3626 147.032 91.3906 145.856 90.8866 144.452C90.4066 145.964 89.4346 147.248 88.1626 147.86L87.4546 146.876C89.1346 146.096 90.2506 144.08 90.2506 142.22V141.188H87.8386V140.168H93.9106V141.188H91.4986ZM95.1706 139.088H96.4186V149.924H95.1706V139.088ZM105.898 140.936V140.204H99.7657V139.352H107.122V141.74H101.002V142.508H107.314V143.372H99.7897V140.936H105.898ZM100.918 148.124V148.952H107.482V149.804H99.6937V147.32H105.934V146.552H99.6697V145.7H107.158V148.124H100.918ZM98.5297 144.056H108.358V144.968H98.5297V144.056ZM120.952 142.256V143.252H113.5V139.46H120.88V140.456H114.724V142.256H120.952ZM117.148 148.964C118.732 148.964 119.632 148.616 119.632 147.944C119.632 147.284 118.732 146.924 117.148 146.924C115.564 146.924 114.676 147.284 114.676 147.944C114.676 148.616 115.564 148.964 117.148 148.964ZM117.148 145.976C119.476 145.976 120.88 146.696 120.88 147.944C120.88 149.204 119.476 149.924 117.148 149.924C114.832 149.924 113.416 149.204 113.416 147.944C113.416 146.696 114.832 145.976 117.148 145.976ZM112.288 144.152H122.08V145.172H112.288V144.152ZM124.407 147.704V146.708H131.955V149.864H130.719V147.704H124.407ZM128.835 144.98H133.131V145.976H123.303V144.98H127.599V143.996H124.563V141.2H130.671V140.288H124.539V139.34H131.895V142.088H125.775V143.048H132.111V143.996H128.835V144.98ZM137.51 146.576C138.386 146.576 139.022 145.976 139.022 145.064C139.022 144.152 138.386 143.552 137.51 143.552C136.634 143.552 135.998 144.152 135.998 145.064C135.998 145.976 136.634 146.576 137.51 146.576ZM137.51 142.532C139.058 142.532 140.198 143.588 140.198 145.064C140.198 146.552 139.058 147.596 137.51 147.596C135.95 147.596 134.822 146.552 134.822 145.064C134.822 143.588 135.95 142.532 137.51 142.532ZM138.11 139.244V140.756H140.642V141.764H134.294V140.756H136.874V139.244H138.11ZM144.434 143.444V144.476H142.766V149.936H141.518V139.088H142.766V143.444H144.434ZM148.717 140.084V141.98C148.717 143.732 149.377 145.568 150.829 146.48L150.133 147.44C149.149 146.84 148.501 145.784 148.129 144.572C147.745 145.904 147.037 147.044 145.993 147.68L145.237 146.744C146.773 145.832 147.517 143.888 147.517 142.04V140.084H148.717ZM151.261 142.88V139.292H152.425V149.42H151.261V143.888H149.665V142.88H151.261ZM153.469 139.088H154.645V149.924H153.469V139.088ZM159.96 145.232V147.584H162.696V145.22C162.276 145.328 161.808 145.376 161.328 145.376C160.848 145.376 160.38 145.328 159.96 145.232ZM161.328 140.684C159.684 140.684 158.544 141.404 158.544 142.544C158.544 143.696 159.684 144.416 161.328 144.416C162.96 144.416 164.1 143.696 164.1 142.544C164.1 141.404 162.96 140.684 161.328 140.684ZM163.932 147.584H166.248V148.592H156.432V147.584H158.724V144.764C157.86 144.284 157.344 143.504 157.344 142.544C157.344 140.816 159.012 139.712 161.328 139.712C163.632 139.712 165.312 140.816 165.312 142.544C165.312 143.504 164.796 144.272 163.932 144.764V147.584ZM168.647 149.156C168.131 149.156 167.723 148.76 167.723 148.196C167.723 147.632 168.131 147.212 168.647 147.212C169.163 147.212 169.571 147.632 169.571 148.196C169.571 148.76 169.163 149.156 168.647 149.156Z" fill="#999999"/>
</svg>
