<svg width="17" height="19" viewBox="0 0 17 19" fill="none" xmlns="http://www.w3.org/2000/svg">
<path d="M8.61468 15.6342H3.08738C2.3855 15.6342 0.630798 15.8798 1.06947 14.6515C1.38532 13.7566 2.06965 13.0197 2.43814 12.1423C2.80662 11.2825 2.98209 10.335 2.99964 9.38745C3.12247 2.42129 8.61468 2.49148 8.61468 2.49148H8.54449C8.54449 2.49148 14.0367 2.43884 14.1595 9.38745C14.1595 10.335 14.3525 11.265 14.721 12.1423C15.0895 13.0197 15.7738 13.7566 16.0897 14.6515C16.5284 15.8798 14.7561 15.6342 14.0718 15.6342H8.54449H8.59713H8.61468Z" stroke="#333333" stroke-miterlimit="10"/>
<path d="M8.59713 17.8099C9.70259 17.8099 10.5975 16.915 10.5975 15.8096H6.57922C6.57922 16.915 7.47412 17.8099 8.57958 17.8099H8.59713Z" stroke="#333333" stroke-miterlimit="10"/>
<path d="M8.59703 1C7.82496 1 7.21082 1.61414 7.21082 2.38621H9.98324C9.98324 1.61414 9.36909 1 8.59703 1Z" stroke="#333333" stroke-miterlimit="10"/>
</svg>
