<svg width="19" height="20" viewBox="0 0 19 20" fill="none" xmlns="http://www.w3.org/2000/svg">
<path d="M10.5762 7.29248L5.87455 3.33203" stroke="#333333" stroke-linecap="round" stroke-linejoin="round"/>
<path d="M2.74216 6.49902L6.65918 11.2528" stroke="#333333" stroke-linecap="round" stroke-linejoin="round"/>
<path d="M0.751549 5.70928L4.98665 1.42723C5.22054 1.19074 5.59977 1.19074 5.83367 1.42723L6.25718 1.85543C6.49107 2.09192 6.49107 2.47535 6.25718 2.71184L2.02208 6.9939C1.78818 7.23039 1.40896 7.23039 1.17506 6.9939L0.751549 6.56569C0.517651 6.3292 0.517651 5.94577 0.751549 5.70928Z" stroke="#333333" stroke-linecap="round" stroke-linejoin="round"/>
<path d="M6.91651 14.0328L13.3221 7.55621C13.4688 7.40784 13.4089 7.15956 13.2143 7.09294L12.7142 6.92338C11.9176 6.6539 11.0402 6.86585 10.4472 7.46537L6.82666 11.1261C6.23372 11.7256 6.02709 12.6127 6.29062 13.4182L6.45832 13.9238C6.5242 14.1206 6.77276 14.1812 6.91651 14.0328Z" stroke="#333333" stroke-linecap="round" stroke-linejoin="round"/>
<path d="M15.8947 18.0232L18 18.6681L17.3771 16.5244L10.9146 9.99023L9.43226 11.489L15.8947 18.0232Z" stroke="#333333" stroke-linecap="round" stroke-linejoin="round"/>
</svg>
