<svg width="20" height="19" viewBox="0 0 20 19" fill="none" xmlns="http://www.w3.org/2000/svg">
<path d="M12.0327 9.62305C12.0327 9.9732 12.3176 10.2581 12.6677 10.2581C13.0179 10.2581 13.3027 9.9732 13.3027 9.62305C13.3027 9.2729 13.0179 8.98804 12.6677 8.98804C12.3176 8.98804 12.0327 9.2729 12.0327 9.62305Z" fill="#999999"/>
<path d="M8.77147 9.62305C8.77147 9.9732 9.05634 10.2581 9.40649 10.2581C9.75664 10.2581 10.0415 9.9732 10.0415 9.62305C10.0415 9.2729 9.75664 8.98804 9.40649 8.98804C9.05634 8.98804 8.77147 9.2729 8.77147 9.62305Z" fill="#999999"/>
<path d="M6.15136 10.2581C5.80065 10.2581 5.51635 9.97376 5.51635 9.62305C5.51635 9.27234 5.80065 8.98804 6.15136 8.98804C6.50207 8.98804 6.78638 9.27234 6.78638 9.62305C6.78638 9.97376 6.50207 10.2581 6.15136 10.2581Z" fill="#999999"/>
<path d="M9.50149 1C14.1988 1 18.003 4.80712 18.003 9.50148C18.003 10.9377 17.6439 12.2878 17.0148 13.4748L19.365 17.3769L14.4184 16.4303L14.4243 16.4214C13.0356 17.4125 11.3383 18 9.50149 18C4.80713 18 1.00001 14.1929 1.00001 9.49852C1.00001 4.80415 4.80713 1 9.50149 1Z" stroke="#999999" stroke-linecap="round" stroke-linejoin="round"/>
</svg>
