<svg width="22" height="21" viewBox="0 0 22 21" fill="none" xmlns="http://www.w3.org/2000/svg">
<path d="M8.98515 10.3908C8.98515 10.7721 8.67492 11.0823 8.2936 11.0823C7.91228 11.0823 7.60205 10.7721 7.60205 10.3908C7.60205 10.0094 7.91228 9.69922 8.2936 9.69922C8.67492 9.69922 8.98515 10.0094 8.98515 10.3908Z" fill="#333333"/>
<path d="M12.5366 10.3908C12.5366 10.7721 12.2264 11.0823 11.8451 11.0823C11.4637 11.0823 11.1535 10.7721 11.1535 10.3908C11.1535 10.0094 11.4637 9.69922 11.8451 9.69922C12.2264 9.69922 12.5366 10.0094 12.5366 10.3908Z" fill="#333333"/>
<path d="M15.39 11.0823C15.772 11.0823 16.0816 10.7727 16.0816 10.3908C16.0816 10.0088 15.772 9.69922 15.39 9.69922C15.0081 9.69922 14.6985 10.0088 14.6985 10.3908C14.6985 10.7727 15.0081 11.0823 15.39 11.0823Z" fill="#333333"/>
<path d="M11.7416 1C6.62611 1 2.48328 5.14607 2.48328 10.2584C2.48328 11.8224 2.87429 13.2928 3.55938 14.5854L1 18.8349L6.38698 17.804L6.38051 17.7943C7.89287 18.8736 9.74132 19.5135 11.7416 19.5135C16.8539 19.5135 21 15.3674 21 10.2551C21 5.14283 16.8539 1 11.7416 1Z" stroke="#333333" stroke-linecap="round" stroke-linejoin="round"/>
</svg>
