<svg width="120" height="112" viewBox="0 0 120 112" fill="none" xmlns="http://www.w3.org/2000/svg">
<path d="M74.6456 106.216C74.3313 109.735 72.6025 111.641 69.4592 111.935C67.9924 111.935 66.7089 111.407 65.6087 110.351C64.561 109.237 64.0371 107.858 64.0371 106.216V64.514C64.0895 62.8718 64.6396 61.5228 65.6873 60.467C66.7351 59.3526 67.9924 58.7954 69.4592 58.7954H73.3097H82.9752H102.385C102.699 58.7954 103.014 58.8247 103.328 58.8834H103.799C107.466 59.0007 110.479 59.9391 112.836 61.6987C115.194 63.4583 116.896 65.4818 117.944 67.7693C118.992 69.9981 119.516 72.2562 119.516 74.5436C119.516 76.8897 118.992 79.2065 117.944 81.494C116.949 83.7228 115.246 85.717 112.836 87.4765C110.479 89.2361 107.466 90.1746 103.799 90.2919H89.969C90.3881 93.2245 91.2525 95.3946 92.5622 96.8023C93.8195 98.21 95.4173 98.9138 97.3557 98.9138H114.329C115.796 98.9724 117.001 99.5883 117.944 100.761C118.939 101.934 119.437 103.342 119.437 104.984C119.385 106.568 118.861 107.917 117.865 109.031C116.922 110.087 115.744 110.644 114.329 110.703H95.9412C92.0645 110.762 88.5545 109.061 85.4113 105.6C82.268 102.14 80.3559 98.034 79.6748 93.2831C78.7318 88.0044 78.2604 85.0424 78.2604 84.3973C78.2604 82.755 78.758 81.3767 79.7534 80.2623C80.8012 79.0892 82.0585 78.5027 83.5253 78.5027H104.271C105.266 78.444 106.078 78.2094 106.707 77.7989C107.388 77.3296 107.886 76.8311 108.2 76.3032C108.514 75.7167 108.671 75.1302 108.671 74.5436C108.671 73.9571 108.514 73.3999 108.2 72.872C107.886 72.2855 107.388 71.787 106.707 71.3764C106.078 70.9072 105.266 70.6432 104.271 70.5846H82.9752H76.6887C75.3266 70.6432 74.6456 71.4057 74.6456 72.872V106.216Z" fill="#FF9696"/>
<path d="M16.2943 58.7954H50.1755C51.6742 58.8555 52.9053 59.4859 53.8687 60.6868C54.8857 61.8877 55.3942 63.3288 55.3942 65.01C55.1266 68.6127 53.387 70.5641 50.1755 70.8643H19.024C16.9901 70.9844 15.3041 71.8551 13.9659 73.4763C12.6278 75.0975 11.6376 76.9588 10.9953 79.0604C10.4065 81.1019 10.1122 83.2034 10.1122 85.365C10.1122 87.5266 10.4065 89.6582 10.9953 91.7598C11.6376 93.8013 12.6278 95.6326 13.9659 97.2538C15.3041 98.875 16.9901 99.7457 19.024 99.8658H43.4314C44.3948 99.8057 44.9033 99.2053 44.9568 98.0644V92.8406C44.9033 91.6397 44.3948 91.0392 43.4314 91.0392H22.8778C21.3791 91.0392 20.0945 90.4688 19.024 89.328C18.0071 88.1271 17.4986 86.686 17.4986 85.0048C17.4986 83.3235 18.0071 81.8825 19.024 80.6816C20.0945 79.5407 21.3791 78.9703 22.8778 78.9703H50.3361C51.8348 78.9703 53.1194 79.5407 54.1899 80.6816C55.1533 81.8224 55.6618 83.2034 55.7153 84.8246V85.0048V106.08C55.6618 107.702 55.1533 109.053 54.1899 110.133C53.1729 111.274 51.9418 111.875 50.4967 111.935H16.2943C12.5475 111.694 9.44309 110.103 6.98095 107.161C4.57233 104.159 2.83277 100.766 1.76228 96.9836C0.745303 93.2008 0.236816 89.328 0.236816 85.365C0.236816 81.4021 0.772065 77.5293 1.84256 73.7465C2.91306 69.9637 4.65262 66.6012 7.06124 63.659C9.46986 60.6568 12.5475 59.0356 16.2943 58.7954Z" fill="#333333"/>
<path d="M102.857 1.44519C106.857 1.67565 110.143 3.23123 112.714 6.11193C115.286 8.93503 117.143 12.1614 118.286 15.7911C119.428 19.4208 120 23.1369 120 26.9394C120 30.742 119.428 34.4581 118.286 38.0878C117.2 41.7175 115.343 44.9727 112.714 47.8534C110.143 50.6765 106.857 52.2032 102.857 52.4337H71.3141C69.7712 52.3761 68.457 51.8287 67.3712 50.7917C66.3427 49.697 65.7998 48.3719 65.7427 46.8163V25.3839C65.7998 23.7707 66.3998 22.4455 67.5427 21.4085C68.6855 20.3138 70.057 19.7665 71.657 19.7665C73.1998 19.8241 74.5141 20.4002 75.5998 21.4949C76.6855 22.532 77.257 23.8283 77.3141 25.3839V38.5199C77.3141 40.0755 78.1141 40.8533 79.7141 40.8533H99.9427C102.114 40.738 103.914 39.9026 105.343 38.347C106.771 36.7915 107.8 35.0342 108.428 33.0753C109.114 31.0589 109.457 29.0136 109.457 26.9394C109.457 24.8653 109.114 22.8488 108.428 20.89C107.8 18.8735 106.771 17.0874 105.343 15.5318C103.914 13.9763 102.114 13.1409 99.9427 13.0256H71.3141C67.8855 12.7376 66.0284 10.8651 65.7427 7.40825C65.7427 5.79506 66.257 4.41232 67.2855 3.26004C68.3712 2.10775 69.7141 1.5028 71.3141 1.44519H102.857Z" fill="#333333"/>
<path d="M27.2571 54.4214C24.2857 54.4214 21.3429 54.0757 18.4286 53.3844C15.5714 52.693 12.8286 51.6848 10.2 50.3596C7.57143 48.9769 5.25714 47.162 3.25714 44.9151C1.25714 42.6681 0.171429 39.9891 0 36.8779V33.2482V31.9519C0 30.3387 0.571429 29.0136 1.71429 27.9765C2.91429 26.8819 4.31429 26.3345 5.91429 26.3345C9.34286 26.6226 11.2 28.4951 11.4857 31.9519V34.1989C11.6 35.9849 12.2571 37.4829 13.4571 38.6928C14.7143 39.8451 16.0857 40.7669 17.5714 41.4582C19.1143 42.1496 20.6857 42.6681 22.2857 43.0138C23.9429 43.3595 25.6 43.5324 27.2571 43.5324C28.9143 43.5324 30.5429 43.3595 32.1429 43.0138C33.8 42.6681 35.3714 42.1496 36.8571 41.4582C38.4 40.7669 39.7714 39.8451 40.9714 38.6928C42.2286 37.4829 42.9143 35.9849 43.0286 34.1989V5.67988C43.0286 4.06668 43.6 2.74156 44.7429 1.7045C45.9429 0.609834 47.3429 0.0625 48.9429 0.0625C52.3714 0.350571 54.2571 2.22303 54.6 5.67988V33.2482V36.8779C54.4286 39.9891 53.3143 42.6681 51.2571 44.9151C49.2571 47.162 46.9429 48.9769 44.3143 50.3596C41.6857 51.6848 38.9143 52.693 36 53.3844C33.1429 54.0757 30.2286 54.4214 27.2571 54.4214Z" fill="#333333"/>
</svg>
