<svg width="18" height="19" viewBox="0 0 18 19" fill="none" xmlns="http://www.w3.org/2000/svg">
<path d="M15.998 18.4731H1.55188C1.17455 18.4731 0.910135 18.104 1.02857 17.7487L1.38662 16.6746C1.68684 15.7739 2.52965 15.168 3.47712 15.168H14.0728C15.0203 15.168 15.8631 15.7739 16.1633 16.6746L16.5214 17.7487C16.6398 18.1068 16.3754 18.4731 15.998 18.4731Z" stroke="#333333" stroke-linecap="round" stroke-linejoin="round"/>
<path d="M3.26782 15.1685V9.52222C3.26782 6.47875 5.7329 4.01367 8.77637 4.01367C11.8198 4.01367 14.2849 6.47875 14.2849 9.52222V15.1685" stroke="#333333" stroke-linecap="round" stroke-linejoin="round"/>
<path d="M12.4479 9.40909C12.4479 7.52241 10.9138 5.98828 9.0271 5.98828" stroke="#333333" stroke-linecap="round" stroke-linejoin="round"/>
<path d="M8.69653 1V2.41294" stroke="#333333" stroke-linecap="round" stroke-linejoin="round"/>
<path d="M4.04443 2.24219L4.80186 3.27504" stroke="#333333" stroke-linecap="round" stroke-linejoin="round"/>
<path d="M13.1639 2.24219L12.4065 3.27504" stroke="#333333" stroke-linecap="round" stroke-linejoin="round"/>
</svg>
