<svg width="12" height="21" viewBox="0 0 12 21" fill="none" xmlns="http://www.w3.org/2000/svg">
<path d="M4.44 18.1455C4.44 18.9368 5.08224 19.5819 5.87644 19.5819C6.67063 19.5819 7.31287 18.9397 7.31287 18.1455" stroke="#333333" stroke-linecap="round" stroke-linejoin="round"/>
<path d="M7.96371 15.2899C8.29343 15.2899 8.5658 15.0204 8.5658 14.6878V13.4836C8.5658 13.432 8.5486 13.3832 8.53427 13.3345C10.0108 12.4342 11 10.8143 11 8.95926C11 6.1294 8.70629 3.83569 5.87643 3.83569C3.04657 3.83569 0.75 6.1294 0.75 8.95926C0.75 10.8143 1.73916 12.4342 3.21573 13.3345C3.20427 13.3832 3.1842 13.4291 3.1842 13.4836V14.6878C3.1842 15.0175 3.45371 15.2899 3.78629 15.2899" stroke="#333333" stroke-linecap="round" stroke-linejoin="round"/>
<path d="M8.56581 16.2474V15.8919C8.56581 15.5593 8.2963 15.2898 7.96371 15.2898H3.7863C3.45658 15.2898 3.1842 15.5593 3.1842 15.8919V16.2474C3.1842 16.4424 3.28169 16.6058 3.42791 16.7176C3.28455 16.8294 3.1842 16.9929 3.1842 17.1878V17.5434C3.1842 17.8731 3.45371 18.1455 3.7863 18.1455H7.96371C8.29343 18.1455 8.56581 17.8759 8.56581 17.5434V17.1878C8.56581 16.9929 8.46546 16.8294 8.32211 16.7176C8.46546 16.6087 8.56581 16.4424 8.56581 16.2474Z" stroke="#333333" stroke-linecap="round" stroke-linejoin="round"/>
<path d="M3.48523 16.7175H7.06054" stroke="#333333" stroke-linecap="round" stroke-linejoin="round"/>
<path d="M5.87354 1V2.41923" stroke="#333333" stroke-linecap="round" stroke-linejoin="round"/>
<path d="M9.67541 2.01782L8.96722 3.24782" stroke="#333333" stroke-linecap="round" stroke-linejoin="round"/>
<path d="M2.07458 2.01782L2.78277 3.24782" stroke="#333333" stroke-linecap="round" stroke-linejoin="round"/>
</svg>
