<svg width="21" height="24" viewBox="0 0 21 24" fill="none" xmlns="http://www.w3.org/2000/svg">
<path d="M19.4037 9.58048H1.76682C1.34332 9.58048 1 9.9238 1 10.3473V22.233C1 22.6565 1.34332 22.9998 1.76682 22.9998H19.4037C19.8272 22.9998 20.1705 22.6565 20.1705 22.233V10.3473C20.1705 9.9238 19.8272 9.58048 19.4037 9.58048Z" stroke="#999999" stroke-linecap="round" stroke-linejoin="round"/>
<path d="M5.98438 9.58065V5.60086C5.98438 3.05885 8.04328 0.999943 10.5853 0.999943C13.1273 0.999943 15.1862 3.05885 15.1862 5.60086V9.58065" stroke="#999999" stroke-linecap="round" stroke-linejoin="round"/>
<path d="M11.3519 15.2014V13.269C11.3519 12.9508 11.0951 12.6939 10.7768 12.6939C10.4586 12.6939 10.2017 12.9508 10.2017 13.269V15.2014C9.25853 15.4775 8.62207 16.2826 8.62207 17.2488C8.62207 18.4374 9.46941 19.4036 10.7768 19.4036C12.0843 19.4036 12.9316 18.4374 12.9316 17.2488C12.9316 16.2865 12.2951 15.4775 11.3519 15.2014Z" stroke="#999999" stroke-linecap="round" stroke-linejoin="round"/>
</svg>
