<svg width="50" height="11" viewBox="0 0 50 11" fill="none" xmlns="http://www.w3.org/2000/svg">
<path d="M40.0714 9.55099C40.0079 10.1856 39.6589 10.5293 39.0243 10.5822C38.7282 10.5822 38.4691 10.487 38.247 10.2966C38.0355 10.0957 37.9297 9.84713 37.9297 9.55099V2.0312C37.9403 1.73506 38.0513 1.4918 38.2628 1.30143C38.4744 1.10048 38.7282 1 39.0243 1H39.8017H41.753H45.6716C45.735 1 45.7985 1.00529 45.862 1.01586H45.9571C46.6975 1.03702 47.3056 1.20624 47.7816 1.52353C48.2575 1.84082 48.6012 2.20571 48.8128 2.61818C49.0243 3.02009 49.1301 3.42728 49.1301 3.83975C49.1301 4.26281 49.0243 4.68058 48.8128 5.09305C48.6118 5.49496 48.2681 5.85455 47.7816 6.17184C47.3056 6.48913 46.6975 6.65836 45.9571 6.67951H43.165C43.2496 7.20833 43.4241 7.59965 43.6885 7.85349C43.9424 8.10732 44.2649 8.23423 44.6563 8.23423H48.083C48.3791 8.24481 48.6224 8.35586 48.8128 8.56739C49.0137 8.77892 49.1142 9.03275 49.1142 9.32889C49.1036 9.61445 48.9979 9.85771 48.7969 10.0587C48.6065 10.249 48.3686 10.3495 48.083 10.3601H44.3707C43.588 10.3707 42.8794 10.0639 42.2448 9.43994C41.6103 8.81593 41.2242 8.07559 41.0867 7.2189C40.8964 6.26703 40.8012 5.73292 40.8012 5.61658C40.8012 5.32045 40.9016 5.0719 41.1026 4.87095C41.3141 4.65942 41.568 4.55366 41.8641 4.55366H46.0523C46.2533 4.54308 46.4172 4.50078 46.5441 4.42674C46.6816 4.34213 46.7821 4.25223 46.8456 4.15705C46.909 4.05128 46.9408 3.94552 46.9408 3.83975C46.9408 3.73399 46.909 3.63352 46.8456 3.53833C46.7821 3.43256 46.6816 3.34267 46.5441 3.26863C46.4172 3.18402 46.2533 3.13643 46.0523 3.12585H41.753H40.4839C40.2089 3.13643 40.0714 3.27392 40.0714 3.53833V9.55099Z" fill="white"/>
<path d="M28.1729 1H34.8677C35.1639 1.01058 35.4071 1.12163 35.5975 1.33316C35.7985 1.54468 35.8989 1.79852 35.8989 2.09465C35.8461 2.72924 35.5023 3.07297 34.8677 3.12585H28.7123C28.3104 3.147 27.9772 3.30036 27.7128 3.58592C27.4484 3.87148 27.2528 4.19935 27.1258 4.56952C27.0095 4.92912 26.9513 5.29929 26.9513 5.68004C26.9513 6.06079 27.0095 6.43625 27.1258 6.80642C27.2528 7.16602 27.4484 7.4886 27.7128 7.77416C27.9772 8.05972 28.3104 8.21308 28.7123 8.23423H33.5351C33.7255 8.22366 33.826 8.11789 33.8366 7.91694V6.9968C33.826 6.78527 33.7255 6.67951 33.5351 6.67951H29.4738C29.1777 6.67951 28.9238 6.57903 28.7123 6.37808C28.5114 6.16655 28.4109 5.91272 28.4109 5.61658C28.4109 5.32045 28.5114 5.06661 28.7123 4.85509C28.9238 4.65413 29.1777 4.55366 29.4738 4.55366H34.8995C35.1956 4.55366 35.4494 4.65413 35.661 4.85509C35.8514 5.05604 35.9518 5.29929 35.9624 5.58485V5.61658V9.32889C35.9518 9.61445 35.8514 9.85242 35.661 10.0428C35.46 10.2437 35.2168 10.3495 34.9312 10.3601H28.1729C27.4326 10.3178 26.8191 10.0375 26.3326 9.51926C25.8567 8.99044 25.513 8.39288 25.3014 7.72657C25.1005 7.06026 25 6.37808 25 5.68004C25 4.982 25.1058 4.29983 25.3173 3.63352C25.5288 2.9672 25.8726 2.37493 26.3485 1.85669C26.8244 1.32787 27.4326 1.04231 28.1729 1Z" fill="white"/>
<path d="M20.693 0.275879C21.4977 0.321863 22.1587 0.632256 22.6761 1.20706C23.1934 1.77037 23.567 2.41414 23.7969 3.1384C24.0269 3.86265 24.1418 4.60414 24.1418 5.36288C24.1418 6.12162 24.0269 6.86311 23.7969 7.58737C23.5785 8.31162 23.2049 8.96114 22.6761 9.53595C22.1587 10.0993 21.4977 10.4039 20.693 10.4499H14.3472C14.0368 10.4384 13.7724 10.3292 13.554 10.1222C13.347 9.90382 13.2378 9.63941 13.2263 9.32902V5.05249C13.2378 4.7306 13.3585 4.46619 13.5884 4.25926C13.8184 4.04083 14.0943 3.93162 14.4162 3.93162C14.7266 3.94312 14.991 4.05808 15.2094 4.2765C15.4278 4.48343 15.5428 4.74209 15.5543 5.05249V7.67359C15.5543 7.98398 15.7152 8.13918 16.0371 8.13918H20.1067C20.5436 8.11618 20.9057 7.94949 21.1931 7.6391C21.4805 7.3287 21.6874 6.97808 21.8139 6.58721C21.9518 6.18485 22.0208 5.77674 22.0208 5.36288C22.0208 4.94902 21.9518 4.54666 21.8139 4.1558C21.6874 3.75343 21.4805 3.39706 21.1931 3.08666C20.9057 2.77627 20.5436 2.60958 20.1067 2.58658H14.3472C13.6574 2.5291 13.2838 2.15548 13.2263 1.46572C13.2263 1.14383 13.3298 0.867925 13.5367 0.638004C13.7551 0.408083 14.0253 0.287375 14.3472 0.275879H20.693Z" fill="white"/>
<path d="M5.48362 10.8465C4.88582 10.8465 4.29377 10.7775 3.70748 10.6396C3.13267 10.5016 2.58086 10.3005 2.05204 10.0361C1.52323 9.76015 1.05764 9.39802 0.655275 8.94967C0.252913 8.50133 0.0344881 7.96676 0 7.34598V6.62172V6.36306C0 6.04117 0.11496 5.77677 0.344881 5.56984C0.586298 5.35141 0.867952 5.2422 1.18984 5.2422C1.8796 5.29968 2.25323 5.6733 2.31071 6.36306V6.81141C2.3337 7.16779 2.4659 7.46668 2.70732 7.7081C2.96023 7.93802 3.23614 8.12196 3.53504 8.25991C3.84543 8.39786 4.16157 8.50133 4.48346 8.57031C4.81684 8.63928 5.15023 8.67377 5.48362 8.67377C5.817 8.67377 6.14464 8.63928 6.46653 8.57031C6.79991 8.50133 7.11605 8.39786 7.41495 8.25991C7.72534 8.12196 8.00125 7.93802 8.24267 7.7081C8.49558 7.46668 8.63353 7.16779 8.65652 6.81141V1.12086C8.65652 0.798975 8.77149 0.534566 9.00141 0.327637C9.24282 0.109212 9.52448 0 9.84637 0C10.5361 0.0574803 10.9155 0.431102 10.9845 1.12086V6.62172V7.34598C10.95 7.96676 10.7258 8.50133 10.312 8.94967C9.90959 9.39802 9.444 9.76015 8.91519 10.0361C8.38637 10.3005 7.82881 10.5016 7.24251 10.6396C6.66771 10.7775 6.08141 10.8465 5.48362 10.8465Z" fill="white"/>
</svg>
