<svg width="44" height="40" viewBox="0 0 44 40" fill="none" xmlns="http://www.w3.org/2000/svg">
<path d="M26.9098 37.9553C26.7965 39.2136 26.1733 39.8951 25.0401 40C24.5113 40 24.0486 39.8113 23.652 39.4338C23.2743 39.0353 23.0854 38.5425 23.0854 37.9553V23.0447C23.1043 22.4575 23.3026 21.9752 23.6804 21.5977C24.0581 21.1992 24.5113 21 25.0401 21H26.4282H29.9126H36.9098C37.0231 21 37.1364 21.0105 37.2498 21.0315H37.4197C38.7417 21.0734 39.8277 21.4089 40.6775 22.0381C41.5274 22.6672 42.1412 23.3907 42.5189 24.2086C42.8966 25.0055 43.0854 25.8129 43.0854 26.6308C43.0854 27.4696 42.8966 28.298 42.5189 29.1159C42.16 29.9128 41.5463 30.6258 40.6775 31.255C39.8277 31.8841 38.7417 32.2196 37.4197 32.2616H32.4339C32.585 33.3102 32.8966 34.0861 33.3687 34.5894C33.822 35.0927 34.398 35.3444 35.0968 35.3444H41.2158C41.7446 35.3653 42.1789 35.5855 42.5189 36.005C42.8777 36.4244 43.0571 36.9277 43.0571 37.5149C43.0382 38.0811 42.8494 38.5635 42.4905 38.9619C42.1506 39.3394 41.7257 39.5386 41.2158 39.5596H34.5869C33.1893 39.5806 31.924 38.9724 30.7908 37.7351C29.6577 36.4978 28.9684 35.0298 28.7228 33.3311C28.3829 31.4437 28.2129 30.3847 28.2129 30.154C28.2129 29.5668 28.3923 29.074 28.7512 28.6755C29.1289 28.2561 29.5821 28.0464 30.1109 28.0464H37.5897C37.9485 28.0254 38.2413 27.9415 38.4679 27.7947C38.7134 27.6269 38.8928 27.4487 39.0061 27.2599C39.1194 27.0502 39.1761 26.8405 39.1761 26.6308C39.1761 26.4211 39.1194 26.2219 39.0061 26.0331C38.8928 25.8234 38.7134 25.6451 38.4679 25.4983C38.2413 25.3306 37.9485 25.2362 37.5897 25.2152H29.9126H27.6464C27.1553 25.2362 26.9098 25.5088 26.9098 26.0331V37.9553Z" fill="#FF9696"/>
<path d="M5.87416 21H18.0883C18.6286 21.0215 19.0724 21.2469 19.4197 21.6763C19.7864 22.1056 19.9697 22.6209 19.9697 23.222C19.8732 24.5102 19.2461 25.2079 18.0883 25.3153H6.85824C6.12501 25.3582 5.51719 25.6695 5.0348 26.2492C4.55241 26.8288 4.19543 27.4943 3.96389 28.2458C3.75163 28.9757 3.64551 29.7271 3.64551 30.5C3.64551 31.2729 3.75163 32.035 3.96389 32.7864C4.19543 33.5164 4.55241 34.1712 5.0348 34.7508C5.51719 35.3305 6.12501 35.6418 6.85824 35.6847H15.6571C16.0044 35.6633 16.1877 35.4486 16.207 35.0407V33.1729C16.1877 32.7435 16.0044 32.5288 15.6571 32.5288H8.24753C7.70725 32.5288 7.24416 32.3249 6.85824 31.9169C6.49162 31.4876 6.30831 30.9723 6.30831 30.3712C6.30831 29.7701 6.49162 29.2548 6.85824 28.8254C7.24416 28.4175 7.70725 28.2136 8.24753 28.2136H18.1462C18.6865 28.2136 19.1496 28.4175 19.5355 28.8254C19.8828 29.2333 20.0662 29.7271 20.0854 30.3068V30.3712V37.9068C20.0662 38.4864 19.8828 38.9695 19.5355 39.3559C19.1689 39.7638 18.7251 39.9785 18.2041 40H5.87416C4.52346 39.9141 3.40431 39.3452 2.51671 38.2932C1.6484 37.2198 1.02129 36.0068 0.635377 34.6542C0.268758 33.3017 0.0854492 31.9169 0.0854492 30.5C0.0854492 29.0831 0.278406 27.6983 0.66432 26.3458C1.05023 24.9932 1.67735 23.791 2.54565 22.739C3.41396 21.6655 4.52346 21.0859 5.87416 21Z" fill="#333333"/>
<path d="M37.08 0.494385C38.522 0.576785 39.7065 1.13298 40.6335 2.16298C41.5605 3.17238 42.23 4.32598 42.642 5.62378C43.054 6.92158 43.26 8.25028 43.26 9.60988C43.26 10.9695 43.054 12.2982 42.642 13.596C42.2506 14.8938 41.5811 16.0577 40.6335 17.0877C39.7065 18.0971 38.522 18.643 37.08 18.7254H25.7088C25.1526 18.7048 24.6788 18.5091 24.2874 18.1383C23.9166 17.7469 23.7209 17.2731 23.7003 16.7169V9.05368C23.7209 8.47688 23.9372 8.00308 24.3492 7.63228C24.7612 7.24088 25.2556 7.04518 25.8324 7.04518C26.3886 7.06578 26.8624 7.27178 27.2538 7.66318C27.6452 8.03398 27.8512 8.49748 27.8718 9.05368V13.7505C27.8718 14.3067 28.1602 14.5848 28.737 14.5848H36.0294C36.8122 14.5436 37.4611 14.2449 37.9761 13.6887C38.4911 13.1325 38.8619 12.5042 39.0885 11.8038C39.3357 11.0828 39.4593 10.3515 39.4593 9.60988C39.4593 8.86828 39.3357 8.14728 39.0885 7.44688C38.8619 6.72588 38.4911 6.08728 37.9761 5.53108C37.4611 4.97488 36.8122 4.67618 36.0294 4.63498H25.7088C24.4728 4.53198 23.8033 3.86248 23.7003 2.62648C23.7003 2.04968 23.8857 1.55528 24.2565 1.14328C24.6479 0.731285 25.132 0.514985 25.7088 0.494385H37.08Z" fill="#333333"/>
<path d="M9.8262 19.4361C8.755 19.4361 7.6941 19.3125 6.6435 19.0653C5.6135 18.8181 4.6247 18.4576 3.6771 17.9838C2.7295 17.4894 1.8952 16.8405 1.1742 16.0371C0.4532 15.2337 0.0618 14.2758 0 13.1634V11.8656V11.4021C0 10.8253 0.206 10.3515 0.618 9.9807C1.0506 9.5893 1.5553 9.3936 2.1321 9.3936C3.3681 9.4966 4.0376 10.1661 4.1406 11.4021V12.2055C4.1818 12.8441 4.4187 13.3797 4.8513 13.8123C5.3045 14.2243 5.7989 14.5539 6.3345 14.8011C6.8907 15.0483 7.4572 15.2337 8.034 15.3573C8.6314 15.4809 9.2288 15.5427 9.8262 15.5427C10.4236 15.5427 11.0107 15.4809 11.5875 15.3573C12.1849 15.2337 12.7514 15.0483 13.287 14.8011C13.8432 14.5539 14.3376 14.2243 14.7702 13.8123C15.2234 13.3797 15.4706 12.8441 15.5118 12.2055V2.0085C15.5118 1.4317 15.7178 0.9579 16.1298 0.5871C16.5624 0.1957 17.0671 0 17.6439 0C18.8799 0.103 19.5597 0.7725 19.6833 2.0085V11.8656V13.1634C19.6215 14.2758 19.2198 15.2337 18.4782 16.0371C17.7572 16.8405 16.9229 17.4894 15.9753 17.9838C15.0277 18.4576 14.0286 18.8181 12.978 19.0653C11.948 19.3125 10.8974 19.4361 9.8262 19.4361Z" fill="#333333"/>
</svg>
